HIERARCHY
ROOT Hips
{
	OFFSET 0.000000 0.000000 0.000000
	CHANNELS 6 Xposition Yposition Zposition Zrotation Yrotation Xrotation 
	JOINT LHipJoint
	{
		OFFSET 0.000000 0.000000 0.000000
		CHANNELS 3 Zrotation Yrotation Xrotation
		JOINT LeftUpLeg
		{
			OFFSET 1.363060 -1.794630 0.839290
			CHANNELS 3 Zrotation Yrotation Xrotation
			JOINT LeftLeg
			{
				OFFSET 2.448110 -6.726130 0.000000
				CHANNELS 3 Zrotation Yrotation Xrotation
				JOINT LeftFoot
				{
					OFFSET 2.562200 -7.039590 0.000000
					CHANNELS 3 Zrotation Yrotation Xrotation
					JOINT LeftToeBase
					{
						OFFSET 0.157640 -0.433110 2.322550
						CHANNELS 3 Zrotation Yrotation Xrotation
						End Site
						{
							OFFSET 0.000000 0.000000 0.000000
						}
					}
				}
			}
		}
	}
	JOINT RHipJoint
	{
		OFFSET 0.000000 0.000000 0.000000
		CHANNELS 3 Zrotation Yrotation Xrotation
		JOINT RightUpLeg
		{
			OFFSET -1.305520 -1.794630 0.839290
			CHANNELS 3 Zrotation Yrotation Xrotation
			JOINT RightLeg
			{
				OFFSET -2.542530 -6.985550 0.000000
				CHANNELS 3 Zrotation Yrotation Xrotation
				JOINT RightFoot
				{
					OFFSET -2.568260 -7.056230 0.000000
					CHANNELS 3 Zrotation Yrotation Xrotation
					JOINT RightToeBase
					{
						OFFSET -0.164730 -0.452590 2.363150
						CHANNELS 3 Zrotation Yrotation Xrotation
						End Site
						{
							OFFSET 0.000000 0.000000 0.000000
						}
					}
				}
			}
		}
	}
}
MOTION
Frames: 16
Frame Time: 0.008333
0.490204 15.514742 1.976101 -34.533363 -79.209564 79.965504 -9.123130 -2.159035 2.865922 -9.562628 -7.103431 -83.156414 -1.396377 3.844460 56.487305 2.561273 5.076499 -23.247809 -1.620800 0.000000 -28.353900 8.020466 0.614540 0.553308 16.603095 2.042544 -87.625590 -1.644485 -7.410456 76.433226 -3.441363 -17.108108 7.765610 -5.741500 -0.000000 -65.557800
0.488003 15.565099 2.005212 -37.389897 -79.015890 82.051413 -9.228159 -2.266954 2.666546 -9.371632 -6.143906 -82.095155 -1.419965 3.811166 56.130114 2.519184 5.002804 -23.211123 -1.605099 0.000000 -28.708800 7.906563 0.757368 0.561350 16.624046 2.690886 -88.208100 -1.969209 -7.380154 78.196687 -3.452088 -17.767742 11.699869 -6.930000 0.000000 -64.956401
0.486238 15.616353 2.034305 -40.196333 -78.805419 84.083524 -9.338397 -2.379296 2.469636 -9.138278 -5.190486 -81.010644 -1.440035 3.771861 55.741491 2.482507 4.958919 -23.162970 -1.592400 0.000000 -29.064400 7.787521 0.888332 0.561164 16.701434 3.326678 -88.811094 -2.249159 -7.358698 79.927591 -3.413524 -18.032888 15.460073 -7.922800 -0.000000 -64.633500
0.484586 15.668143 2.062843 -42.901347 -78.585641 86.020907 -9.449624 -2.492796 2.279152 -8.869748 -4.265508 -79.911182 -1.456083 3.725512 55.321325 2.453239 4.952161 -23.103834 -1.584200 0.000000 -29.383800 7.670164 1.007209 0.557243 16.816709 3.948395 -89.445089 -2.494108 -7.350602 81.618858 -3.328043 -17.870187 18.942456 -8.619700 -0.000000 -64.621600
0.483084 15.720194 2.090910 -45.490273 -78.355427 87.855070 -9.562581 -2.608480 2.097954 -8.559075 -3.380545 -78.802500 -1.465984 3.671666 54.872080 2.432267 4.988915 -23.029053 -1.580900 -0.000000 -29.709900 7.555539 1.111540 0.550354 16.967097 4.558344 -90.110840 -2.713601 -7.358152 83.256253 -3.201258 -17.274954 22.063699 -8.953200 0.000000 -64.946901
0.481634 15.772293 2.118470 -47.961751 -78.119354 89.592894 -9.675239 -2.724947 1.927736 -8.210626 -2.545479 -77.692350 -1.469227 3.610456 54.395472 2.420357 5.072828 -22.936347 -1.583000 0.000000 -30.046500 7.445919 1.201347 0.543592 17.142352 5.160514 -90.820353 -2.917683 -7.383372 84.829661 -3.040564 -16.268510 24.742209 -8.890800 0.000000 -65.513801
0.480061 15.824238 2.145134 -50.334713 -77.888489 91.261998 -9.781896 -2.837772 1.768250 -7.842272 -1.767044 -76.588591 -1.467354 3.542422 53.891607 2.418212 5.204294 -22.828021 -1.591100 -0.000000 -30.336400 7.345126 1.280121 0.543023 17.321104 5.762398 -91.594071 -3.115298 -7.426960 86.330659 -2.855524 -14.912027 26.915517 -8.451300 -0.000000 -66.199200
0.478404 15.875917 2.171062 -52.645609 -77.664579 92.903897 -9.881296 -2.946496 1.618024 -7.459374 -1.041464 -75.496906 -1.460847 3.468709 53.362594 2.425354 5.381344 -22.702691 -1.604400 0.000000 -30.591999 7.251629 1.349146 0.550791 17.496475 6.373331 -92.441408 -3.311193 -7.487402 87.744972 -2.656757 -13.309342 28.556413 -7.707200 0.000000 -66.908200
0.477206 15.927300 2.197042 -54.934770 -77.438300 94.554698 -9.977019 -3.055581 1.474663 -7.052375 -0.357461 -74.419079 -1.448661 3.390881 52.814309 2.440373 5.600022 -22.558250 -1.621500 -0.000000 -30.861800 7.158705 1.406911 0.563872 17.678117 7.000950 -93.358446 -3.505831 -7.561797 89.055223 -2.454676 -11.592553 29.672769 -6.769501 0.000000 -67.549500
0.476250 15.978245 2.222593 -57.239630 -77.218888 96.258520 -10.062309 -3.159819 1.334252 -6.646816 0.291521 -73.361499 -1.434529 3.310586 52.246810 2.462491 5.852206 -22.400555 -1.641999 -0.000000 -31.073000 7.068356 1.458949 0.588196 17.843282 7.656362 -94.364431 -3.698881 -7.647306 90.253383 -2.260631 -9.907511 30.302817 -5.766600 -0.000000 -68.042100
0.476066 16.028630 2.248760 -59.580762 -76.989307 98.029675 -10.143899 -3.266121 1.194280 -6.224701 0.922011 -72.323351 -1.417099 3.229675 51.667614 2.489444 6.130483 -22.228409 -1.663699 0.000000 -31.293500 6.971404 1.501173 0.617613 18.012547 8.344823 -95.444209 -3.884947 -7.739854 91.322251 -2.083741 -8.387279 30.521636 -4.819200 -0.000000 -68.349600
0.476481 16.078279 2.274985 -61.975314 -76.756072 99.888531 -10.215672 -3.369634 1.050648 -5.810265 1.541130 -71.309503 -1.400187 3.149777 51.077244 2.519867 6.424274 -22.047941 -1.685800 -0.000000 -31.457300 6.870217 1.538395 0.655903 18.165516 9.071860 -96.609879 -4.060332 -7.836593 92.257584 -1.932395 -7.133137 30.422204 -4.018500 0.000000 -68.449899
0.477892 16.126955 2.302224 -64.405207 -76.500131 101.811643 -10.285524 -3.477693 0.902846 -5.381831 2.161048 -70.320246 -1.382041 3.072514 50.484876 2.551596 6.725914 -21.859711 -1.706600 -0.000001 -31.626100 6.756564 1.564469 0.695763 18.326147 9.836717 -97.840306 -4.218161 -7.934316 93.045566 -1.811938 -6.207721 30.109762 -3.420400 0.000000 -68.397300
0.480050 16.174319 2.329866 -66.852099 -76.227290 103.784778 -10.348508 -3.585815 0.749166 -4.959003 2.781549 -69.361617 -1.365471 2.998937 49.892241 2.583556 7.026752 -21.668687 -1.725600 0.000001 -31.755700 6.634022 1.582612 0.739389 18.475613 10.636501 -99.140703 -4.354925 -8.031332 93.684581 -1.725521 -5.626372 29.684602 -3.040300 -0.000001 -68.235200
0.482945 16.220081 2.357697 -69.279673 -75.937235 105.772291 -10.404189 -3.693166 0.590109 -4.546611 3.399846 -68.439232 -1.350974 2.929835 49.304490 2.614832 7.321430 -21.476723 -1.742100 0.000000 -31.848700 6.503399 1.592461 0.785441 18.608436 11.462934 -100.505625 -4.467082 -8.126446 94.170489 -1.673119 -5.368782 29.234603 -2.865900 -0.000000 -68.035799
0.486720 16.263773 2.386222 -71.627340 -75.620125 107.715323 -10.458632 -3.804640 0.429731 -4.127190 4.011175 -67.561585 -1.336172 2.865878 48.731946 2.644822 7.607569 -21.284823 -1.755700 0.000000 -31.942200 6.361090 1.587820 0.829480 18.737220 12.306038 -101.917588 -4.549869 -8.218640 94.490533 -1.652294 -5.394765 28.835787 -2.871400 0.000000 -67.989700
